<mxfile>
    <diagram id="RrnGyhTox1kCKPTknkRC" name="Seite-1">
        <mxGraphModel dx="3016" dy="984" grid="1" gridSize="10" guides="1" tooltips="1" connect="1" arrows="1" fold="1" page="0" pageScale="1" pageWidth="827" pageHeight="1169" math="0" shadow="0">
            <root>
                <mxCell id="0"/>
                <mxCell id="1" parent="0"/>
                <mxCell id="rid1xrD-9KdfzVZvJYU5-9" value="HPI Schul-Cloud &lt;br style=&quot;font-size: 10px&quot;&gt;&lt;b style=&quot;font-size: 10px&quot;&gt;NestJS Server&lt;/b&gt;" style="rounded=0;whiteSpace=wrap;html=1;fontSize=10;align=left;verticalAlign=top;strokeColor=none;fillColor=#F2F2F2;movable=1;resizable=1;rotatable=1;deletable=1;editable=1;connectable=1;" parent="1" vertex="1">
                    <mxGeometry x="-2360" y="-100" width="600" height="500" as="geometry"/>
                </mxCell>
                <mxCell id="rid1xrD-9KdfzVZvJYU5-10" value="Business Layer:&lt;br&gt;Module-Hierarchy &amp;amp;&amp;nbsp;&lt;br&gt;Providers, Libraries" style="rounded=0;whiteSpace=wrap;html=1;align=left;spacingLeft=6;strokeColor=none;fillColor=#BCE7FF;fontSize=10;fontColor=#000000;" parent="1" vertex="1">
                    <mxGeometry x="-2341" y="120" width="571" height="170" as="geometry"/>
                </mxCell>
                <mxCell id="rid1xrD-9KdfzVZvJYU5-11" value="Presentation Layer:&amp;nbsp;&lt;br&gt;" style="rounded=0;whiteSpace=wrap;html=1;align=left;spacingLeft=6;strokeColor=none;fillColor=#EED9F9;fontSize=10;fontColor=#000000;" parent="1" vertex="1">
                    <mxGeometry x="-2341" y="-50" width="571" height="136" as="geometry"/>
                </mxCell>
                <mxCell id="rid1xrD-9KdfzVZvJYU5-12" value="Data-Access Layer:" style="rounded=0;whiteSpace=wrap;html=1;align=left;spacingLeft=6;strokeColor=none;fillColor=#FFD6DB;fontSize=10;fontColor=#000000;" parent="1" vertex="1">
                    <mxGeometry x="-2341" y="300" width="571" height="87.33" as="geometry"/>
                </mxCell>
                <mxCell id="rid1xrD-9KdfzVZvJYU5-13" value="(Feature-)&lt;br&gt;Module" style="rounded=0;whiteSpace=wrap;html=1;align=left;opacity=20;fillColor=#330000;labelPosition=center;verticalLabelPosition=middle;verticalAlign=top;fontStyle=1;fontSize=10;strokeColor=none;" parent="1" vertex="1">
                    <mxGeometry x="-2240" y="-90" width="340" height="470" as="geometry"/>
                </mxCell>
                <mxCell id="rid1xrD-9KdfzVZvJYU5-14" style="edgeStyle=orthogonalEdgeStyle;rounded=0;orthogonalLoop=1;jettySize=auto;html=1;exitX=0.5;exitY=1;exitDx=0;exitDy=0;fontSize=10;" parent="1" edge="1">
                    <mxGeometry relative="1" as="geometry">
                        <mxPoint x="-2111.2" y="224.19786" as="sourcePoint"/>
                        <mxPoint x="-2111.2" y="224.19786" as="targetPoint"/>
                    </mxGeometry>
                </mxCell>
                <mxCell id="rid1xrD-9KdfzVZvJYU5-16" value="Controller" style="rounded=0;whiteSpace=wrap;html=1;align=right;fillColor=#333333;fontColor=#FFFFFF;fontSize=10;strokeColor=none;" parent="1" vertex="1">
                    <mxGeometry x="-2220" y="20" width="300" height="80" as="geometry"/>
                </mxCell>
                <mxCell id="rid1xrD-9KdfzVZvJYU5-18" value="API" style="rounded=0;whiteSpace=wrap;html=1;align=center;fillColor=#333333;fontColor=#FFFFFF;fontSize=10;strokeColor=none;" parent="1" vertex="1">
                    <mxGeometry x="-2180" y="-140" width="200" height="27.33" as="geometry"/>
                </mxCell>
                <mxCell id="rid1xrD-9KdfzVZvJYU5-22" value="Use-Case" style="rounded=0;whiteSpace=wrap;html=1;align=right;fillColor=#333333;fontColor=#FFFFFF;fontSize=10;strokeColor=none;" parent="1" vertex="1">
                    <mxGeometry x="-2220" y="120" width="300" height="170" as="geometry"/>
                </mxCell>
                <mxCell id="rid1xrD-9KdfzVZvJYU5-35" value="Database" style="shape=cylinder2;whiteSpace=wrap;html=1;boundedLbl=1;backgroundOutline=1;size=6;rounded=0;fillColor=#333333;fontSize=10;fontColor=#FFFFFF;align=center;strokeColor=#EBEBEB;verticalAlign=middle;spacingTop=6;" parent="1" vertex="1">
                    <mxGeometry x="-2113.3333333333335" y="419.997" width="86.66666666666667" height="34.666399999999996" as="geometry"/>
                </mxCell>
                <mxCell id="rid1xrD-9KdfzVZvJYU5-23" style="rounded=0;orthogonalLoop=1;jettySize=auto;html=1;fontSize=10;fontColor=#FFFFFF;entryX=0.504;entryY=0.26;entryDx=0;entryDy=0;entryPerimeter=0;" parent="1" source="rid1xrD-9KdfzVZvJYU5-24" target="rid1xrD-9KdfzVZvJYU5-35" edge="1">
                    <mxGeometry relative="1" as="geometry">
                        <mxPoint x="-2170.67" y="430.99700000000007" as="targetPoint"/>
                    </mxGeometry>
                </mxCell>
                <mxCell id="8yRnzs8G9Q1AsX-TOyiY-19" value="ORM" style="edgeLabel;html=1;align=center;verticalAlign=middle;resizable=0;points=[];" parent="rid1xrD-9KdfzVZvJYU5-23" vertex="1" connectable="0">
                    <mxGeometry x="0.0214" y="2" relative="1" as="geometry">
                        <mxPoint as="offset"/>
                    </mxGeometry>
                </mxCell>
                <mxCell id="4" value="" style="edgeStyle=orthogonalEdgeStyle;rounded=0;orthogonalLoop=1;jettySize=auto;html=1;" parent="1" source="pIiQtggeaeeMusSIM2SB-3" target="2" edge="1">
                    <mxGeometry relative="1" as="geometry"/>
                </mxCell>
                <mxCell id="11" value="Mapping" style="edgeLabel;html=1;align=center;verticalAlign=middle;resizable=0;points=[];" parent="4" vertex="1" connectable="0">
                    <mxGeometry x="-0.206" relative="1" as="geometry">
                        <mxPoint x="-0.04" y="-18.66" as="offset"/>
                    </mxGeometry>
                </mxCell>
                <mxCell id="pIiQtggeaeeMusSIM2SB-3" value="REQUEST DTO:&lt;br&gt;*.query.ts *.param.ts" style="rounded=0;whiteSpace=wrap;html=1;align=center;fillColor=#e1d5e7;fontSize=10;strokeColor=#9673a6;opacity=60;" parent="1" vertex="1">
                    <mxGeometry x="-2202.83" y="20" width="82.83" height="60" as="geometry"/>
                </mxCell>
                <mxCell id="6" value="&lt;font color=&quot;#ffffff&quot; style=&quot;background-color: rgb(51 , 51 , 51)&quot;&gt;Mapping&lt;/font&gt;" style="edgeStyle=orthogonalEdgeStyle;rounded=0;orthogonalLoop=1;jettySize=auto;html=1;fontColor=#000000;exitX=0.75;exitY=0;exitDx=0;exitDy=0;" parent="1" source="8" target="8yRnzs8G9Q1AsX-TOyiY-1" edge="1">
                    <mxGeometry x="0.4737" relative="1" as="geometry">
                        <mxPoint as="offset"/>
                        <mxPoint x="-2072.8275862068967" y="120" as="sourcePoint"/>
                    </mxGeometry>
                </mxCell>
                <mxCell id="8yRnzs8G9Q1AsX-TOyiY-1" value="RESPONSE DTO:&lt;br&gt;*.response.ts" style="rounded=0;whiteSpace=wrap;html=1;align=center;fillColor=#e1d5e7;fontSize=10;strokeColor=#9673a6;opacity=60;" parent="1" vertex="1">
                    <mxGeometry x="-2099.66" y="20" width="64.34" height="50" as="geometry"/>
                </mxCell>
                <mxCell id="8yRnzs8G9Q1AsX-TOyiY-2" value="" style="endArrow=classic;html=1;exitX=0.5;exitY=0;exitDx=0;exitDy=0;entryX=0.75;entryY=1;entryDx=0;entryDy=0;fontColor=#000000;" parent="1" source="8yRnzs8G9Q1AsX-TOyiY-9" target="rid1xrD-9KdfzVZvJYU5-18" edge="1">
                    <mxGeometry width="50" height="50" relative="1" as="geometry">
                        <mxPoint x="-2060.34" y="110" as="sourcePoint"/>
                        <mxPoint x="-2110" y="84.75819496014651" as="targetPoint"/>
                    </mxGeometry>
                </mxCell>
                <mxCell id="8yRnzs8G9Q1AsX-TOyiY-14" value="text/JSON" style="edgeLabel;html=1;align=center;verticalAlign=middle;resizable=0;points=[];" parent="8yRnzs8G9Q1AsX-TOyiY-2" vertex="1" connectable="0">
                    <mxGeometry x="0.0623" relative="1" as="geometry">
                        <mxPoint as="offset"/>
                    </mxGeometry>
                </mxCell>
                <mxCell id="8yRnzs8G9Q1AsX-TOyiY-3" value="" style="endArrow=classic;html=1;entryX=0.5;entryY=0;entryDx=0;entryDy=0;exitX=0.25;exitY=1;exitDx=0;exitDy=0;fontColor=#000000;" parent="1" source="rid1xrD-9KdfzVZvJYU5-18" target="8yRnzs8G9Q1AsX-TOyiY-8" edge="1">
                    <mxGeometry width="50" height="50" relative="1" as="geometry">
                        <mxPoint x="-2169" y="-100" as="sourcePoint"/>
                        <mxPoint x="-2134.67" y="-62.66999999999996" as="targetPoint"/>
                    </mxGeometry>
                </mxCell>
                <mxCell id="8yRnzs8G9Q1AsX-TOyiY-13" value="text/JSON" style="edgeLabel;html=1;align=center;verticalAlign=middle;resizable=0;points=[];" parent="8yRnzs8G9Q1AsX-TOyiY-3" vertex="1" connectable="0">
                    <mxGeometry x="-0.0973" relative="1" as="geometry">
                        <mxPoint as="offset"/>
                    </mxGeometry>
                </mxCell>
                <mxCell id="rid1xrD-9KdfzVZvJYU5-24" value="Repository" style="rounded=0;whiteSpace=wrap;html=1;align=right;fillColor=#333333;fontColor=#FFFFFF;fontSize=10;strokeColor=none;" parent="1" vertex="1">
                    <mxGeometry x="-2220" y="320" width="300" height="50" as="geometry"/>
                </mxCell>
                <mxCell id="8yRnzs8G9Q1AsX-TOyiY-8" value="ValidationPipe" style="rounded=0;whiteSpace=wrap;html=1;align=center;fillColor=#f8cecc;fontSize=10;strokeColor=#b85450;opacity=60;" parent="1" vertex="1">
                    <mxGeometry x="-2193.91" y="-45.32" width="65.66" height="21.66" as="geometry"/>
                </mxCell>
                <mxCell id="8yRnzs8G9Q1AsX-TOyiY-9" value="Serializer" style="rounded=0;whiteSpace=wrap;html=1;align=center;fillColor=#f8cecc;fontSize=10;strokeColor=#b85450;opacity=60;" parent="1" vertex="1">
                    <mxGeometry x="-2099.66" y="-2" width="65.66" height="21.66" as="geometry"/>
                </mxCell>
                <mxCell id="8yRnzs8G9Q1AsX-TOyiY-10" value="ClassTransf." style="rounded=0;whiteSpace=wrap;html=1;align=center;fillColor=#f8cecc;fontSize=10;strokeColor=#b85450;opacity=60;" parent="1" vertex="1">
                    <mxGeometry x="-2194.58" y="-23.66" width="65.66" height="22" as="geometry"/>
                </mxCell>
                <mxCell id="9" value="" style="edgeStyle=orthogonalEdgeStyle;rounded=0;orthogonalLoop=1;jettySize=auto;html=1;fontColor=#000000;entryX=0.25;entryY=0;entryDx=0;entryDy=0;exitX=0.5;exitY=1;exitDx=0;exitDy=0;" parent="1" source="pIiQtggeaeeMusSIM2SB-3" target="8" edge="1">
                    <mxGeometry relative="1" as="geometry">
                        <Array as="points">
                            <mxPoint x="-2161" y="110"/>
                            <mxPoint x="-2122" y="110"/>
                        </Array>
                    </mxGeometry>
                </mxCell>
                <mxCell id="2" value="Interfaces" style="rounded=0;whiteSpace=wrap;html=1;align=center;fillColor=#e1d5e7;fontSize=10;strokeColor=#9673a6;opacity=60;" parent="1" vertex="1">
                    <mxGeometry x="-2203.5" y="140" width="53.5" height="200" as="geometry"/>
                </mxCell>
                <mxCell id="8" value="Entity" style="rounded=0;whiteSpace=wrap;html=1;align=center;fillColor=#dae8fc;fontSize=10;strokeColor=#6c8ebf;opacity=60;" parent="1" vertex="1">
                    <mxGeometry x="-2150" y="140" width="110" height="200" as="geometry"/>
                </mxCell>
                <mxCell id="10" value="Authentication" style="rounded=0;whiteSpace=wrap;html=1;align=center;fillColor=#f8cecc;fontSize=10;strokeColor=#b85450;opacity=60;" parent="1" vertex="1">
                    <mxGeometry x="-2195.25" y="-2" width="65.66" height="22" as="geometry"/>
                </mxCell>
                <mxCell id="14" value="&lt;font color=&quot;#000000&quot; style=&quot;font-size: 10px;&quot;&gt;Entity Mapping is mandatory, while it might be optional for interfaces&lt;/font&gt;" style="text;html=1;strokeColor=none;fillColor=none;align=left;verticalAlign=middle;whiteSpace=wrap;rounded=0;fontSize=10;" parent="1" vertex="1">
                    <mxGeometry x="-1880" y="-30" width="90" height="100" as="geometry"/>
                </mxCell>
                <mxCell id="15" value="&lt;font color=&quot;#000000&quot; style=&quot;font-size: 10px&quot;&gt;Decorators define the persistence mapping for the repository within of the domain entities.&lt;br&gt;&lt;br&gt;&lt;br&gt;&lt;br&gt;&lt;br&gt;&lt;br&gt;&lt;b&gt;Ownership&lt;/b&gt; of entities is in the business layer, a repository must provide only the ability to load/persist entities.&amp;nbsp;&lt;br&gt;&lt;/font&gt;" style="text;html=1;strokeColor=none;fillColor=none;align=left;verticalAlign=middle;whiteSpace=wrap;rounded=0;fontSize=10;" parent="1" vertex="1">
                    <mxGeometry x="-1880" y="140" width="90" height="230" as="geometry"/>
                </mxCell>
            </root>
        </mxGraphModel>
    </diagram>
</mxfile>
